<svg width="146" height="119" viewBox="0 0 146 119" fill="none" xmlns="http://www.w3.org/2000/svg">
<path d="M27.6855 95.9277C23.0469 95.9277 20.5078 93.6816 19.043 88.4082L4.3457 35.0879C3.85742 33.2812 3.56445 31.5234 3.56445 30.2051C3.56445 26.1035 6.34766 23.5645 10.8398 23.5645C14.6973 23.5645 17.041 25.7129 17.9199 29.9121L28.4668 75.5664H28.8574L40.7227 30.1562C41.8457 25.5664 44.1895 23.5645 48.291 23.5645C52.2949 23.5645 54.7363 25.7129 55.8105 30.0586L67.6758 75.5664H68.0664L78.6133 29.9121C79.541 25.6641 81.8848 23.5645 85.7422 23.5645C90.2344 23.5645 93.0176 26.1035 93.0176 30.2051C93.0176 31.4746 92.7246 33.2324 92.2363 35.0879L77.4902 88.5059C76.0254 93.6816 73.4863 95.9277 68.9453 95.9277C64.209 95.9277 61.6211 93.7305 60.2051 88.457L48.4863 46.8555H48.0469L36.377 88.457C34.9609 93.6328 32.3242 95.9277 27.6855 95.9277Z" fill="#AB28B2"/>
<path d="M85.8145 95.9277C81.1758 95.9277 78.4414 93.0957 78.4414 88.2617V31.2793C78.4414 26.3965 81.1758 23.5645 85.8145 23.5645C90.4531 23.5645 93.1875 26.3965 93.1875 31.2793V53.1543H124.926V31.2793C124.926 26.3965 127.66 23.5645 132.299 23.5645C136.938 23.5645 139.672 26.3965 139.672 31.2793V88.2617C139.672 93.0957 136.938 95.9277 132.299 95.9277C127.66 95.9277 124.926 93.0957 124.926 88.2617V65.3125H93.1875V88.2617C93.1875 93.0957 90.4531 95.9277 85.8145 95.9277Z" fill="#CC2FD4"/>
</svg>
