<svg width="417" height="226" viewBox="0 0 417 226" fill="none" xmlns="http://www.w3.org/2000/svg">
<g filter="url(#filter0_d_3046_91)">
<path d="M76.3633 217.09C62.4473 217.09 54.8301 210.352 50.4355 194.531L6.34375 34.5703C4.87891 29.1504 4 23.877 4 19.9219C4 7.61719 12.3496 0 25.8262 0C37.3984 0 44.4297 6.44531 47.0664 19.043L78.707 156.006H79.8789L115.475 19.7754C118.844 6.00586 125.875 0 138.18 0C150.191 0 157.516 6.44531 160.738 19.4824L196.334 156.006H197.506L229.146 19.043C231.93 6.29883 238.961 0 250.533 0C264.01 0 272.359 7.61719 272.359 19.9219C272.359 23.7305 271.48 29.0039 270.016 34.5703L225.777 194.824C221.383 210.352 213.766 217.09 200.143 217.09C185.934 217.09 178.17 210.498 173.922 194.678L138.766 69.873H137.447L102.438 194.678C98.1895 210.205 90.2793 217.09 76.3633 217.09Z" fill="#F2F2F2"/>
<path d="M250.75 217.09C236.834 217.09 228.631 208.594 228.631 194.092V23.1445C228.631 8.49609 236.834 0 250.75 0C264.666 0 272.869 8.49609 272.869 23.1445V88.7695H368.084V23.1445C368.084 8.49609 376.287 0 390.203 0C404.119 0 412.322 8.49609 412.322 23.1445V194.092C412.322 208.594 404.119 217.09 390.203 217.09C376.287 217.09 368.084 208.594 368.084 194.092V125.244H272.869V194.092C272.869 208.594 264.666 217.09 250.75 217.09Z" fill="white"/>
</g>
<defs>
<filter id="filter0_d_3046_91" x="0" y="0" width="416.322" height="225.09" filterUnits="userSpaceOnUse" color-interpolation-filters="sRGB">
<feFlood flood-opacity="0" result="BackgroundImageFix"/>
<feColorMatrix in="SourceAlpha" type="matrix" values="0 0 0 0 0 0 0 0 0 0 0 0 0 0 0 0 0 0 127 0" result="hardAlpha"/>
<feOffset dy="4"/>
<feGaussianBlur stdDeviation="2"/>
<feComposite in2="hardAlpha" operator="out"/>
<feColorMatrix type="matrix" values="0 0 0 0 0 0 0 0 0 0 0 0 0 0 0 0 0 0 0.25 0"/>
<feBlend mode="normal" in2="BackgroundImageFix" result="effect1_dropShadow_3046_91"/>
<feBlend mode="normal" in="SourceGraphic" in2="effect1_dropShadow_3046_91" result="shape"/>
</filter>
</defs>
</svg>
