<svg width="600" height="375" viewBox="0 0 600 375" fill="none" xmlns="http://www.w3.org/2000/svg">
<g clip-path="url(#clip0_3035_159)">
<rect width="600" height="375" fill="#0C0C0C"/>
<rect width="600" height="375" fill="url(#paint0_linear_3035_159)"/>
<path d="M396 173.217C396 198.114 396 235.374 396 284.995C396 288.972 394.704 292.257 392.113 294.85C389.35 297.617 386.067 299 382.267 299C378.467 299 375.185 297.617 372.421 294.85C369.83 292.257 368.534 288.972 368.534 284.995C368.534 275.14 368.534 260.357 368.534 240.647C359.725 249.465 349.447 256.467 337.7 261.654C325.954 266.841 313.43 269.435 300.13 269.435C286.656 269.435 274.046 266.841 262.3 261.654C250.553 256.467 240.275 249.465 231.466 240.647C231.466 250.502 231.466 265.285 231.466 284.995C231.466 288.972 230.17 292.257 227.579 294.85C224.815 297.617 221.533 299 217.733 299C213.933 299 210.65 297.617 207.887 294.85C205.296 292.257 204 288.972 204 284.995C204 260.271 204 223.012 204 173.217C204 155.928 208.146 140.107 216.437 125.757C224.729 111.234 235.698 99.736 249.344 91.264C256.772 86.7687 264.718 83.2243 273.182 80.6308C281.819 78.2103 290.802 77 300.13 77C309.285 77 318.181 78.2103 326.818 80.6308C335.282 83.2243 343.228 86.7687 350.656 91.264C364.302 99.736 375.271 111.234 383.563 125.757C391.854 140.107 396 155.928 396 173.217ZM231.466 171.921C231.466 182.64 234.057 193.273 239.239 203.82C244.421 214.194 251.849 222.666 261.522 229.236C266.704 232.694 272.491 235.46 278.883 237.535C285.447 239.61 292.529 240.647 300.13 240.647C312.912 240.647 324.399 237.708 334.591 231.829C344.783 225.951 352.815 218.084 358.688 208.229C361.97 203.042 364.475 197.423 366.202 191.371C367.757 185.147 368.534 178.664 368.534 171.921C368.534 165.35 367.671 158.953 365.943 152.729C364.216 146.678 361.711 141.058 358.429 135.871C352.383 126.016 344.178 118.15 333.814 112.271C323.622 106.22 312.394 103.194 300.13 103.194C287.692 103.194 276.378 106.22 266.186 112.271C255.822 118.15 247.617 126.016 241.571 135.871C238.289 141.058 235.784 146.678 234.057 152.729C232.329 158.953 231.466 165.35 231.466 171.921Z" fill="black"/>
</g>
<defs>
<linearGradient id="paint0_linear_3035_159" x1="0" y1="0" x2="600" y2="0" gradientUnits="userSpaceOnUse">
<stop offset="1" stop-color="white"/>
</linearGradient>
<clipPath id="clip0_3035_159">
<rect width="600" height="375" fill="white"/>
</clipPath>
</defs>
</svg>
