<svg width="600" height="375" viewBox="0 0 600 375" fill="none" xmlns="http://www.w3.org/2000/svg">
<rect width="600" height="375" fill="url(#paint0_linear_3034_121)"/>
<g filter="url(#filter0_d_3034_121)">
<path d="M229.667 167.201C229.667 161.688 234.144 157.218 239.667 157.218H268V184.506H229.667V167.201Z" fill="#FFFEE8"/>
<path d="M281 245.072C275.477 245.072 271 240.602 271 235.088V97.9834C271 92.4697 275.477 88 281 88H298V245.072H281Z" fill="#FFC444"/>
<path d="M301 288V137.251H318C323.523 137.251 328 141.721 328 147.235V278.017C328 283.53 323.523 288 318 288H301Z" fill="#3DDC81"/>
<path d="M200 187.834H268V214.789H210C204.477 214.789 200 210.319 200 204.805V187.834Z" fill="#7B4ABB"/>
<path d="M331 157.218H390C395.523 157.218 400 161.688 400 167.201V184.506H331V157.218Z" fill="#18C3DF"/>
<path d="M331.667 187.834H370V204.805C370 210.319 365.523 214.789 360 214.789H331.667V187.834Z" fill="#E86161"/>
</g>
<g filter="url(#filter1_d_3034_121)">
<path d="M249.634 301.432H262.33C263.557 301.432 264.768 301.585 265.964 301.892C267.16 302.168 268.218 302.643 269.138 303.318C270.089 303.962 270.855 304.805 271.438 305.848C272.021 306.891 272.312 308.148 272.312 309.62C272.312 311.46 271.791 312.978 270.748 314.174C269.705 315.37 268.341 316.229 266.654 316.75V316.842C267.666 316.965 268.601 317.256 269.46 317.716C270.349 318.145 271.101 318.713 271.714 319.418C272.327 320.093 272.803 320.89 273.14 321.81C273.508 322.699 273.692 323.665 273.692 324.708C273.692 326.487 273.339 327.974 272.634 329.17C271.929 330.335 270.993 331.286 269.828 332.022C268.693 332.727 267.375 333.233 265.872 333.54C264.4 333.847 262.897 334 261.364 334H249.634V301.432ZM255.43 314.68H260.72C262.652 314.68 264.093 314.312 265.044 313.576C266.025 312.809 266.516 311.813 266.516 310.586C266.516 309.175 266.01 308.133 264.998 307.458C264.017 306.753 262.422 306.4 260.214 306.4H255.43V314.68ZM255.43 329.032H260.766C261.502 329.032 262.284 328.986 263.112 328.894C263.971 328.802 264.753 328.587 265.458 328.25C266.163 327.913 266.746 327.437 267.206 326.824C267.666 326.18 267.896 325.321 267.896 324.248C267.896 322.531 267.329 321.335 266.194 320.66C265.09 319.985 263.357 319.648 260.996 319.648H255.43V329.032ZM292.756 330.964H292.618C291.821 332.221 290.809 333.141 289.582 333.724C288.355 334.276 287.006 334.552 285.534 334.552C284.522 334.552 283.525 334.414 282.544 334.138C281.593 333.862 280.735 333.448 279.968 332.896C279.232 332.344 278.634 331.654 278.174 330.826C277.714 329.998 277.484 329.032 277.484 327.928C277.484 326.732 277.699 325.72 278.128 324.892C278.557 324.033 279.125 323.328 279.83 322.776C280.566 322.193 281.409 321.733 282.36 321.396C283.311 321.059 284.292 320.813 285.304 320.66C286.347 320.476 287.389 320.369 288.432 320.338C289.475 320.277 290.456 320.246 291.376 320.246H292.756V319.648C292.756 318.268 292.281 317.241 291.33 316.566C290.379 315.861 289.168 315.508 287.696 315.508C286.531 315.508 285.442 315.723 284.43 316.152C283.418 316.551 282.544 317.103 281.808 317.808L278.91 314.91C280.137 313.653 281.563 312.748 283.188 312.196C284.844 311.644 286.546 311.368 288.294 311.368C289.858 311.368 291.177 311.552 292.25 311.92C293.323 312.257 294.213 312.702 294.918 313.254C295.623 313.806 296.16 314.45 296.528 315.186C296.927 315.891 297.203 316.612 297.356 317.348C297.54 318.084 297.647 318.805 297.678 319.51C297.709 320.185 297.724 320.783 297.724 321.304V334H292.756V330.964ZM292.434 324.11H291.284C290.517 324.11 289.659 324.141 288.708 324.202C287.757 324.263 286.853 324.417 285.994 324.662C285.166 324.877 284.461 325.214 283.878 325.674C283.295 326.103 283.004 326.717 283.004 327.514C283.004 328.035 283.111 328.48 283.326 328.848C283.571 329.185 283.878 329.477 284.246 329.722C284.614 329.967 285.028 330.151 285.488 330.274C285.948 330.366 286.408 330.412 286.868 330.412C288.769 330.412 290.165 329.967 291.054 329.078C291.974 328.158 292.434 326.916 292.434 325.352V324.11ZM303.663 311.92H309.183V315.416H309.275C309.888 314.128 310.762 313.131 311.897 312.426C313.032 311.721 314.335 311.368 315.807 311.368C316.144 311.368 316.466 311.399 316.773 311.46C317.11 311.521 317.448 311.598 317.785 311.69V317.026C317.325 316.903 316.865 316.811 316.405 316.75C315.976 316.658 315.546 316.612 315.117 316.612C313.829 316.612 312.786 316.857 311.989 317.348C311.222 317.808 310.624 318.345 310.195 318.958C309.796 319.571 309.52 320.185 309.367 320.798C309.244 321.411 309.183 321.871 309.183 322.178V334H303.663V311.92ZM333.318 318.038C332.245 316.535 330.803 315.784 328.994 315.784C328.258 315.784 327.537 315.968 326.832 316.336C326.127 316.704 325.774 317.302 325.774 318.13C325.774 318.805 326.065 319.295 326.648 319.602C327.231 319.909 327.967 320.169 328.856 320.384C329.745 320.599 330.696 320.829 331.708 321.074C332.751 321.289 333.717 321.641 334.606 322.132C335.495 322.592 336.231 323.236 336.814 324.064C337.397 324.892 337.688 326.027 337.688 327.468C337.688 328.787 337.397 329.906 336.814 330.826C336.262 331.715 335.526 332.436 334.606 332.988C333.717 333.54 332.705 333.939 331.57 334.184C330.435 334.429 329.301 334.552 328.166 334.552C326.449 334.552 324.869 334.307 323.428 333.816C321.987 333.325 320.699 332.436 319.564 331.148L323.244 327.698C323.949 328.495 324.701 329.155 325.498 329.676C326.326 330.167 327.323 330.412 328.488 330.412C328.887 330.412 329.301 330.366 329.73 330.274C330.159 330.182 330.558 330.029 330.926 329.814C331.294 329.599 331.585 329.339 331.8 329.032C332.045 328.695 332.168 328.311 332.168 327.882C332.168 327.115 331.877 326.548 331.294 326.18C330.711 325.812 329.975 325.521 329.086 325.306C328.197 325.061 327.231 324.846 326.188 324.662C325.176 324.447 324.225 324.125 323.336 323.696C322.447 323.236 321.711 322.607 321.128 321.81C320.545 321.013 320.254 319.909 320.254 318.498C320.254 317.271 320.499 316.213 320.99 315.324C321.511 314.404 322.186 313.653 323.014 313.07C323.842 312.487 324.793 312.058 325.866 311.782C326.939 311.506 328.028 311.368 329.132 311.368C330.604 311.368 332.061 311.629 333.502 312.15C334.943 312.641 336.109 313.499 336.998 314.726L333.318 318.038ZM341.982 330.78C341.982 329.799 342.334 328.955 343.04 328.25C343.776 327.545 344.65 327.192 345.662 327.192C346.643 327.192 347.502 327.529 348.238 328.204C348.974 328.879 349.342 329.707 349.342 330.688C349.342 331.669 348.974 332.513 348.238 333.218C347.532 333.923 346.674 334.276 345.662 334.276C345.171 334.276 344.696 334.184 344.236 334C343.806 333.816 343.423 333.571 343.086 333.264C342.748 332.957 342.472 332.589 342.258 332.16C342.074 331.731 341.982 331.271 341.982 330.78Z" fill="white"/>
</g>
<defs>
<filter id="filter0_d_3034_121" x="196" y="88" width="208" height="248" filterUnits="userSpaceOnUse" color-interpolation-filters="sRGB">
<feFlood flood-opacity="0" result="BackgroundImageFix"/>
<feColorMatrix in="SourceAlpha" type="matrix" values="0 0 0 0 0 0 0 0 0 0 0 0 0 0 0 0 0 0 127 0" result="hardAlpha"/>
<feOffset dy="44"/>
<feGaussianBlur stdDeviation="2"/>
<feComposite in2="hardAlpha" operator="out"/>
<feColorMatrix type="matrix" values="0 0 0 0 0 0 0 0 0 0 0 0 0 0 0 0 0 0 0.25 0"/>
<feBlend mode="normal" in2="BackgroundImageFix" result="effect1_dropShadow_3034_121"/>
<feBlend mode="normal" in="SourceGraphic" in2="effect1_dropShadow_3034_121" result="shape"/>
</filter>
<filter id="filter1_d_3034_121" x="245.634" y="301.432" width="107.708" height="57.1211" filterUnits="userSpaceOnUse" color-interpolation-filters="sRGB">
<feFlood flood-opacity="0" result="BackgroundImageFix"/>
<feColorMatrix in="SourceAlpha" type="matrix" values="0 0 0 0 0 0 0 0 0 0 0 0 0 0 0 0 0 0 127 0" result="hardAlpha"/>
<feOffset dy="20"/>
<feGaussianBlur stdDeviation="2"/>
<feComposite in2="hardAlpha" operator="out"/>
<feColorMatrix type="matrix" values="0 0 0 0 0 0 0 0 0 0 0 0 0 0 0 0 0 0 0.25 0"/>
<feBlend mode="normal" in2="BackgroundImageFix" result="effect1_dropShadow_3034_121"/>
<feBlend mode="normal" in="SourceGraphic" in2="effect1_dropShadow_3034_121" result="shape"/>
</filter>
<linearGradient id="paint0_linear_3034_121" x1="300" y1="-2.01941e-05" x2="723.5" y2="816.5" gradientUnits="userSpaceOnUse">
<stop stop-color="#196072"/>
<stop offset="1" stop-color="#363434"/>
</linearGradient>
</defs>
</svg>
