<svg width="600" height="375" viewBox="0 0 600 375" fill="none" xmlns="http://www.w3.org/2000/svg">
<g clip-path="url(#clip0_3034_138)">
<rect width="600" height="375" fill="#0C0C0C"/>
<rect width="600" height="375" fill="url(#paint0_linear_3034_138)"/>
<path d="M217.54 209H211.9V181.4C211.9 176.68 213.16 173 215.68 170.36C218.24 167.72 221.62 166.4 225.82 166.4C230.3 166.4 233.76 167.68 236.2 170.24C238.68 172.8 239.92 176.06 239.92 180.02C239.92 182.5 239.46 184.66 238.54 186.5C237.66 188.34 236.46 189.76 234.94 190.76C233.42 191.76 231.8 192.5 230.08 192.98C228.36 193.46 226.56 193.7 224.68 193.7H220.18V188.42H225.34C228.02 188.42 230.12 187.62 231.64 186.02C233.2 184.38 233.98 182.34 233.98 179.9C233.98 177.5 233.26 175.54 231.82 174.02C230.42 172.46 228.4 171.68 225.76 171.68C223.2 171.68 221.18 172.56 219.7 174.32C218.26 176.04 217.54 178.32 217.54 181.16V209ZM259.743 179.6C266.543 179.88 269.943 182.7 269.943 188.06C269.943 194.74 265.563 198.08 256.803 198.08H254.343V193.46H257.223C259.903 193.46 261.763 193.06 262.803 192.26C263.843 191.42 264.363 190.04 264.363 188.12C264.363 186.88 263.903 185.96 262.983 185.36C262.063 184.72 260.883 184.4 259.443 184.4C256.603 184.4 254.363 185.4 252.723 187.4C251.123 189.4 250.323 191.8 250.323 194.6C250.323 197.56 251.183 199.96 252.903 201.8C254.663 203.64 256.943 204.56 259.743 204.56C262.263 204.56 264.323 203.94 265.923 202.7L269.523 206.24C266.763 208.48 263.503 209.6 259.743 209.6C255.183 209.6 251.543 208.26 248.823 205.58C246.103 202.9 244.743 199.44 244.743 195.2C244.743 190.48 246.083 186.66 248.763 183.74C251.443 180.82 255.103 179.44 259.743 179.6ZM275.936 167H281.336V194.6C281.336 197.76 282.136 200.22 283.736 201.98C285.376 203.7 287.616 204.56 290.456 204.56C293.416 204.56 295.736 203.72 297.416 202.04C299.096 200.32 299.936 197.84 299.936 194.6C299.936 191.52 299.016 189.1 297.176 187.34C295.376 185.54 292.996 184.64 290.036 184.64C287.516 184.64 285.336 185.36 283.496 186.8V181.4C285.696 180.2 288.076 179.6 290.636 179.6C294.876 179.6 298.376 180.98 301.136 183.74C303.936 186.46 305.336 190.08 305.336 194.6C305.336 199.36 303.876 203.06 300.956 205.7C298.076 208.3 294.436 209.6 290.036 209.6C285.836 209.6 282.436 208.24 279.836 205.52C277.236 202.8 275.936 199.16 275.936 194.6V167ZM311.62 167H317.02V194.6C317.02 197.76 317.82 200.22 319.42 201.98C321.06 203.7 323.3 204.56 326.14 204.56C329.1 204.56 331.42 203.72 333.1 202.04C334.78 200.32 335.62 197.84 335.62 194.6C335.62 191.52 334.7 189.1 332.86 187.34C331.06 185.54 328.68 184.64 325.72 184.64C323.2 184.64 321.02 185.36 319.18 186.8V181.4C321.38 180.2 323.76 179.6 326.32 179.6C330.56 179.6 334.06 180.98 336.82 183.74C339.62 186.46 341.02 190.08 341.02 194.6C341.02 199.36 339.56 203.06 336.64 205.7C333.76 208.3 330.12 209.6 325.72 209.6C321.52 209.6 318.12 208.24 315.52 205.52C312.92 202.8 311.62 199.16 311.62 194.6V167ZM347.303 197.6V167H352.703V197.6C352.703 199.04 352.863 200.22 353.183 201.14C353.543 202.02 354.083 202.66 354.803 203.06C355.523 203.42 356.223 203.66 356.903 203.78C357.583 203.9 358.483 203.96 359.603 203.96V209C355.123 209 351.943 208.14 350.063 206.42C348.223 204.7 347.303 201.76 347.303 197.6ZM377.575 179.6C384.375 179.88 387.775 182.7 387.775 188.06C387.775 194.74 383.395 198.08 374.635 198.08H372.175V193.46H375.055C377.735 193.46 379.595 193.06 380.635 192.26C381.675 191.42 382.195 190.04 382.195 188.12C382.195 186.88 381.735 185.96 380.815 185.36C379.895 184.72 378.715 184.4 377.275 184.4C374.435 184.4 372.195 185.4 370.555 187.4C368.955 189.4 368.155 191.8 368.155 194.6C368.155 197.56 369.015 199.96 370.735 201.8C372.495 203.64 374.775 204.56 377.575 204.56C380.095 204.56 382.155 203.94 383.755 202.7L387.355 206.24C384.595 208.48 381.335 209.6 377.575 209.6C373.015 209.6 369.375 208.26 366.655 205.58C363.935 202.9 362.575 199.44 362.575 195.2C362.575 190.48 363.915 186.66 366.595 183.74C369.275 180.82 372.935 179.44 377.575 179.6Z" fill="#F6F9FF"/>
</g>
<defs>
<linearGradient id="paint0_linear_3034_138" x1="0" y1="0" x2="600" y2="0" gradientUnits="userSpaceOnUse">
<stop stop-color="#2563EB"/>
<stop offset="1" stop-color="#608DEF"/>
</linearGradient>
<clipPath id="clip0_3034_138">
<rect width="600" height="375" fill="white"/>
</clipPath>
</defs>
</svg>
