<svg width="600" height="375" viewBox="0 0 600 375" fill="none" xmlns="http://www.w3.org/2000/svg">
<rect width="600" height="375" fill="#E6DACC"/>
<path fill-rule="evenodd" clip-rule="evenodd" d="M371.184 160.444L371.381 161.033L371.921 162.555L372.118 163.144L372.658 164.642L372.855 165.231L373.322 166.606L373.518 167.17L373.961 168.471L374.157 169.036L374.575 170.263L374.772 170.828L375.116 172.006L375.288 172.571L375.656 173.651L375.853 174.216L376.197 175.198L376.394 175.762L376.713 176.695L376.91 177.235L377.205 178.095L377.377 178.635L377.573 179.371L377.745 179.887L378.016 180.648L378.188 181.163L378.433 181.875L378.605 182.366L378.826 183.004L378.998 183.495L379.22 184.109L379.392 184.576L379.588 185.14L379.736 185.582L379.908 186.098L380.055 186.54L380.227 187.031L380.375 187.448L380.547 187.89V188.307L380.694 188.7L380.842 189.093V189.461V189.854V190.197L380.964 190.566V190.86V191.228V191.499V191.842V192.088V192.407V192.652V192.947V193.168V193.462V193.659V193.929V194.101V194.346V194.518V194.764V194.911V195.132V195.279V195.5V195.696V195.917V196.187V196.801V197.243V198.471V199.011V199.207V199.919V200.778V201.097V201.416V201.785V202.177V202.595V203.037V203.92V204.461V205.05C381.136 217.324 396.593 232.054 393.743 240.499C390.892 248.944 405.243 264.803 409.863 276.611H391.408C391.413 274.933 390.898 273.295 389.934 271.922L345.455 200.876L352.827 188.97L361.797 179.985L370.864 160.1L371.061 160.444H371.184ZM375.583 157.277L449.992 276.071C450.653 276.985 451.005 278.086 451 279.213C451 280.652 450.428 282.032 449.409 283.05C448.391 284.067 447.009 284.639 445.569 284.639H157.096C155.637 284.645 154.203 284.256 152.947 283.511C151.692 282.767 150.663 281.697 149.969 280.414C149.275 279.131 148.943 277.684 149.008 276.227C149.073 274.771 149.533 273.359 150.338 272.143L265.172 95.0688C265.821 93.9008 266.76 92.9199 267.9 92.2211C269.719 91.0895 271.913 90.7253 274 91.2086C276.087 91.6919 277.897 92.9832 279.032 94.7988L341.843 195.107L366.417 157.424C366.85 156.634 367.486 155.973 368.26 155.509C369.472 154.777 370.924 154.549 372.302 154.875C373.681 155.201 374.877 156.055 375.632 157.252L375.583 157.277ZM277.901 276.537H158.62L184.25 242.684L223.569 173.946L246.029 147.948L257.456 122.711L272.2 99.0458L272.495 99.5368C274.658 106.067 275.592 109.627 277.41 114.88C278.491 117.9 283.062 124.479 283.971 126.983C297.02 163.218 290.41 149.912 290.582 165.967C290.778 184.404 313.853 206.351 309.602 218.822C304.859 232.619 330.195 258.641 334.937 276.537H277.901Z" fill="#49403B"/>
<g clip-path="url(#clip0_3034_124)">
<path fill-rule="evenodd" clip-rule="evenodd" d="M299.897 211.528L265.696 246.079V228.863C244.069 224.382 226.979 229.324 214.005 245.771C216.256 211.94 239.372 195.612 265.696 194.528V176.977L299.897 211.528Z" fill="#49403B"/>
</g>
<g clip-path="url(#clip1_3034_124)">
<path fill-rule="evenodd" clip-rule="evenodd" d="M349.61 200.043L360.744 211.227V205.654C367.784 204.204 373.347 205.804 377.57 211.128C376.837 200.177 369.313 194.891 360.744 194.541V188.859L349.61 200.043Z" fill="#49403B"/>
</g>
<defs>
<clipPath id="clip0_3034_124">
<rect width="85.892" height="69.1022" fill="white" transform="matrix(-1 0 0 1 299.897 176.977)"/>
</clipPath>
<clipPath id="clip1_3034_124">
<rect width="27.9596" height="22.3677" fill="white" transform="translate(349.61 188.859)"/>
</clipPath>
</defs>
</svg>
