<svg width="600" height="375" viewBox="0 0 600 375" fill="none" xmlns="http://www.w3.org/2000/svg">
<g clip-path="url(#clip0_3035_155)">
<rect width="600" height="375" fill="#0C0C0C"/>
<rect width="600" height="375" fill="url(#paint0_linear_3035_155)"/>
<rect width="600" height="500" transform="translate(0 -62)" fill="url(#paint1_linear_3035_155)"/>
<g filter="url(#filter0_d_3035_155)">
<path d="M202.989 247C192.799 247 187.221 242.065 184.003 230.478L151.716 113.32C150.644 109.35 150 105.488 150 102.591C150 93.5789 156.114 88 165.983 88C174.456 88 179.605 92.7206 181.536 101.947L204.705 202.261H205.563L231.629 102.484C234.096 92.3988 239.245 88 248.255 88C257.051 88 262.414 92.7206 264.774 102.269L290.839 202.261H291.698L314.867 101.947C316.905 92.6134 322.054 88 330.528 88C340.396 88 346.51 93.5789 346.51 102.591C346.51 105.381 345.867 109.243 344.794 113.32L312.4 230.692C309.182 242.065 303.604 247 293.628 247C283.224 247 277.538 242.172 274.428 230.585L248.684 139.176H247.719L222.082 230.585C218.972 241.957 213.179 247 202.989 247Z" fill="#F2F2F2"/>
<path d="M330.686 247C320.496 247 314.489 240.777 314.489 230.156V104.951C314.489 94.2227 320.496 88 330.686 88C340.877 88 346.883 94.2227 346.883 104.951V153.016H416.606V104.951C416.606 94.2227 422.613 88 432.803 88C442.993 88 449 94.2227 449 104.951V230.156C449 240.777 442.993 247 432.803 247C422.613 247 416.606 240.777 416.606 230.156V179.731H346.883V230.156C346.883 240.777 340.877 247 330.686 247Z" fill="white"/>
</g>
<g filter="url(#filter1_d_3035_155)">
<path d="M106.843 311.464C104.523 311.464 103.254 310.341 102.521 307.704L95.1729 281.044C94.9287 280.141 94.7822 279.262 94.7822 278.603C94.7822 276.552 96.1738 275.282 98.4199 275.282C100.349 275.282 101.521 276.356 101.96 278.456L107.233 301.283H107.429L113.361 278.578C113.923 276.283 115.095 275.282 117.146 275.282C119.147 275.282 120.368 276.356 120.905 278.529L126.838 301.283H127.033L132.307 278.456C132.771 276.332 133.942 275.282 135.871 275.282C138.117 275.282 139.509 276.552 139.509 278.603C139.509 279.237 139.362 280.116 139.118 281.044L131.745 307.753C131.013 310.341 129.743 311.464 127.473 311.464C125.104 311.464 123.811 310.365 123.103 307.729L117.243 286.928H117.023L111.188 307.729C110.48 310.316 109.162 311.464 106.843 311.464ZM160.407 311C158.088 311 156.721 309.584 156.721 307.143V279.604C156.721 277.187 158.088 275.771 160.407 275.771H177.155C179.182 275.771 180.5 276.918 180.5 278.822C180.5 280.727 179.157 281.874 177.155 281.874H164.094V290.346H176.521C178.352 290.346 179.597 291.42 179.597 293.178C179.597 294.936 178.376 296.01 176.521 296.01H164.094V304.896H177.155C179.157 304.896 180.5 306.044 180.5 307.948C180.5 309.853 179.182 311 177.155 311H160.407ZM200.227 311.464C197.932 311.464 196.491 310.121 196.491 307.997C196.491 307.387 196.662 306.557 196.979 305.653L206.599 279.457C207.624 276.601 209.357 275.282 212.141 275.282C215.021 275.282 216.73 276.552 217.78 279.433L227.448 305.653C227.79 306.605 227.912 307.265 227.912 307.997C227.912 310.023 226.374 311.464 224.226 311.464C222.15 311.464 221.052 310.512 220.393 308.217L218.537 302.65H205.817L203.962 308.144C203.278 310.487 202.18 311.464 200.227 311.464ZM207.429 296.938H216.828L212.165 282.509H211.994L207.429 296.938ZM248.591 311.513C246.296 311.513 244.904 310.097 244.904 307.68V279.604C244.904 277.187 246.271 275.771 248.591 275.771H259.333C267.438 275.771 272.077 280.043 272.077 287.001C272.077 291.396 269.904 295.155 266.022 296.815L271.101 305.604C271.711 306.654 271.882 307.289 271.882 308.144C271.882 310.097 270.319 311.513 268.171 311.513C266.413 311.513 265.607 310.878 264.411 308.729L258.552 298.109H252.277V307.68C252.277 310.097 250.91 311.513 248.591 311.513ZM252.277 292.763H258.625C262.336 292.763 264.509 290.639 264.509 287.147C264.509 283.729 262.214 281.532 258.552 281.532H252.277V292.763ZM293.122 311.464C290.803 311.464 289.436 310.048 289.436 307.631V279.14C289.436 276.698 290.803 275.282 293.122 275.282C295.441 275.282 296.809 276.698 296.809 279.14V290.077H312.678V279.14C312.678 276.698 314.045 275.282 316.364 275.282C318.684 275.282 320.051 276.698 320.051 279.14V307.631C320.051 310.048 318.684 311.464 316.364 311.464C314.045 311.464 312.678 310.048 312.678 307.631V296.156H296.809V307.631C296.809 310.048 295.441 311.464 293.122 311.464ZM354.304 311.586C343.854 311.586 337.312 304.604 337.312 293.397C337.312 282.167 343.854 275.16 354.304 275.16C364.729 275.16 371.296 282.167 371.296 293.397C371.296 304.604 364.729 311.586 354.304 311.586ZM354.304 305.434C360.065 305.434 363.752 300.771 363.752 293.397C363.752 286 360.065 281.312 354.304 281.312C348.542 281.312 344.831 286 344.831 293.397C344.831 300.771 348.518 305.434 354.304 305.434ZM403.327 311.586C394.294 311.586 388.557 306.312 388.557 298.549V279.14C388.557 276.698 389.924 275.282 392.243 275.282C394.562 275.282 395.93 276.698 395.93 279.14V297.816C395.93 302.333 398.591 305.287 403.327 305.287C408.039 305.287 410.7 302.333 410.7 297.816V279.14C410.7 276.698 412.067 275.282 414.387 275.282C416.706 275.282 418.073 276.698 418.073 279.14V298.549C418.073 306.312 412.336 311.586 403.327 311.586ZM449.348 311.586C442.072 311.586 437.409 308.681 435.993 304.823C435.749 304.188 435.603 303.505 435.603 302.846C435.603 300.893 436.945 299.599 438.85 299.599C440.363 299.599 441.364 300.185 442.243 301.747C443.391 304.433 446.149 305.653 449.519 305.653C453.474 305.653 456.159 303.749 456.159 301.161C456.159 298.842 454.499 297.523 450.08 296.62L446.345 295.888C439.313 294.496 435.871 291.127 435.871 285.878C435.871 279.433 441.486 275.16 449.323 275.16C455.769 275.16 460.627 277.87 462.189 282.46C462.36 282.948 462.458 283.461 462.458 284.096C462.458 285.854 461.188 287.05 459.309 287.05C457.648 287.05 456.623 286.391 455.793 284.877C454.621 282.216 452.351 281.117 449.323 281.117C445.686 281.117 443.269 282.826 443.269 285.414C443.269 287.587 444.953 288.93 449.128 289.76L452.839 290.517C460.31 292.006 463.532 295.009 463.532 300.355C463.532 307.24 458.137 311.586 449.348 311.586ZM484.235 311C481.916 311 480.549 309.584 480.549 307.143V279.604C480.549 277.187 481.916 275.771 484.235 275.771H500.983C503.01 275.771 504.328 276.918 504.328 278.822C504.328 280.727 502.985 281.874 500.983 281.874H487.922V290.346H500.349C502.18 290.346 503.425 291.42 503.425 293.178C503.425 294.936 502.204 296.01 500.349 296.01H487.922V304.896H500.983C502.985 304.896 504.328 306.044 504.328 307.948C504.328 309.853 503.01 311 500.983 311H484.235Z" fill="white"/>
</g>
</g>
<defs>
<filter id="filter0_d_3035_155" x="146" y="88" width="307" height="167" filterUnits="userSpaceOnUse" color-interpolation-filters="sRGB">
<feFlood flood-opacity="0" result="BackgroundImageFix"/>
<feColorMatrix in="SourceAlpha" type="matrix" values="0 0 0 0 0 0 0 0 0 0 0 0 0 0 0 0 0 0 127 0" result="hardAlpha"/>
<feOffset dy="4"/>
<feGaussianBlur stdDeviation="2"/>
<feComposite in2="hardAlpha" operator="out"/>
<feColorMatrix type="matrix" values="0 0 0 0 0 0 0 0 0 0 0 0 0 0 0 0 0 0 0.25 0"/>
<feBlend mode="normal" in2="BackgroundImageFix" result="effect1_dropShadow_3035_155"/>
<feBlend mode="normal" in="SourceGraphic" in2="effect1_dropShadow_3035_155" result="shape"/>
</filter>
<filter id="filter1_d_3035_155" x="90.7822" y="275.16" width="417.546" height="44.4258" filterUnits="userSpaceOnUse" color-interpolation-filters="sRGB">
<feFlood flood-opacity="0" result="BackgroundImageFix"/>
<feColorMatrix in="SourceAlpha" type="matrix" values="0 0 0 0 0 0 0 0 0 0 0 0 0 0 0 0 0 0 127 0" result="hardAlpha"/>
<feOffset dy="4"/>
<feGaussianBlur stdDeviation="2"/>
<feComposite in2="hardAlpha" operator="out"/>
<feColorMatrix type="matrix" values="0 0 0 0 0 0 0 0 0 0 0 0 0 0 0 0 0 0 0.25 0"/>
<feBlend mode="normal" in2="BackgroundImageFix" result="effect1_dropShadow_3035_155"/>
<feBlend mode="normal" in="SourceGraphic" in2="effect1_dropShadow_3035_155" result="shape"/>
</filter>
<linearGradient id="paint0_linear_3035_155" x1="0" y1="0" x2="600" y2="0" gradientUnits="userSpaceOnUse">
<stop stop-color="#2563EB"/>
<stop offset="1" stop-color="#608DEF"/>
</linearGradient>
<linearGradient id="paint1_linear_3035_155" x1="-12.4761" y1="-28.5535" x2="293.995" y2="635.622" gradientUnits="userSpaceOnUse">
<stop stop-color="#AB28B2"/>
<stop offset="1" stop-color="#49114C"/>
</linearGradient>
<clipPath id="clip0_3035_155">
<rect width="600" height="375" fill="white"/>
</clipPath>
</defs>
</svg>
